<svg width="31" height="33" viewBox="0 0 31 33" fill="none" xmlns="http://www.w3.org/2000/svg">
<path d="M0 7.65049L4.01085 10.3096C4.01085 10.3096 7.48293 3.96216 13.2932 1.64026C20.8853 -1.40525 25.4807 0.723455 25.4807 0.723455L23.0545 7.78047C23.0545 7.78047 18.7373 6.90931 15.5152 9.01693C12.2931 11.1246 10.8881 15.0834 10.8881 15.0834L15.7089 18.0551L2.32763 22.0877L0 7.65049Z" fill="#186697"/>
<path d="M30.0796 24.4342L26.0688 21.7751C26.0688 21.7751 22.5932 28.126 16.7864 30.4444C9.19434 33.4899 4.59894 31.3577 4.59894 31.3577L7.02869 24.3042C7.02869 24.3042 11.3424 25.1824 14.5644 23.0677C17.7865 20.9531 19.1915 17.0048 19.1915 17.0048L14.3708 14.0331L27.752 10.0005L30.0796 24.4342Z" fill="#37AB49"/>
</svg>
